# xmcd
#
# Track frame offsets:
#	150
#	17627
#	35868
#	59336
#	80610
#	107265
#	134306
#	152016
#	170094
#	197992
#
# Disc length: 2874 seconds
#
# Revision: 1
# Processed by: cddbd v1.5.2PL0 Copyright (c) Steve Scherf et al.
# Submitted via: EZCDAudioConverter 8.0.2.1
#
DISCID=840b380a
DTITLE=Nguyễn Phi Hùng - Vol 01. Mất Nhau Từ Đây
DYEAR=2000
DGENRE=World Pop
TTITLE0=Mất Nhau Từ Đây
TTITLE1=Trọn một đêm vui
TTITLE2=Nuối tiếc
TTITLE3=Tìm về chốn cũ
TTITLE4=Vết cắt
TTITLE5=Bailamos
TTITLE6=Chỉ còn nước mắt
TTITLE7=Còn mãi chờ nhau
TTITLE8=Xót xa
TTITLE9=Ngày chưa yêu
EXTD=
EXTT0=
EXTT1=
EXTT2=
EXTT3=
EXTT4=
EXTT5=
EXTT6=
EXTT7=
EXTT8=
EXTT9=
PLAYORDER=
